<?xml version="1.0" encoding="utf-8"?>
<!-- Generator: Adobe Illustrator 23.0.5, SVG Export Plug-In . SVG Version: 6.00 Build 0)  -->
<svg version="1.1" id="Layer_1" xmlns="http://www.w3.org/2000/svg" xmlns:xlink="http://www.w3.org/1999/xlink" x="0px" y="0px"
	 viewBox="0 0 466 239.8" style="enable-background:new 0 0 466 239.8;" xml:space="preserve">
<style type="text/css">
	.st0{display:none;}
	.st1{fill:#FFFFFF;}
	.st2{fill:#EF305E;}
	.st3{fill:url(#SVGID_1_);}
	.st4{clip-path:url(#SVGID_3_);fill-rule:evenodd;clip-rule:evenodd;fill:#475059;}
	.st5{fill-rule:evenodd;clip-rule:evenodd;fill:#FBB03B;}
	.st6{fill-rule:evenodd;clip-rule:evenodd;fill:#1BC944;}
</style>
<path class="st0" d="M130.6-35.3h-524.5c-18.1,0-32.8-14.7-32.8-32.8v-296.5c0-18.1,14.7-32.8,32.8-32.8h524.5
	c18.1,0,32.8,14.7,32.8,32.8V-68C163.3-49.9,148.7-35.3,130.6-35.3z"/>
<path class="st1" d="M-203.3-64.3h5.4l1.3-16.7c0.1-2,0-4.7,0-4.7h0.1c0,0,0.9,2.9,1.6,4.7l4.8,11.6h4.7l4.8-11.6
	c0.7-1.7,1.6-4.6,1.6-4.6h0.1c0,0-0.1,2.6,0,4.6l1.3,16.7h5.4l-2.4-29.8h-5.8l-5.8,14.7c-0.7,1.8-1.5,4.4-1.5,4.4h-0.1
	c0,0-0.8-2.6-1.5-4.4l-5.8-14.7h-5.8L-203.3-64.3z M-167.9-75c0,6.1,4.4,11.2,11.5,11.2c5.3,0,8.6-3.1,8.6-3.1l-2.1-3.8
	c0,0-2.7,2.4-6.2,2.4c-3.2,0-6.1-1.9-6.4-5.7h14.8c0,0,0.1-1.4,0.1-2.1c0-5.7-3.3-10.2-9.5-10.2C-163.4-86.2-167.9-81.6-167.9-75z
	 M-162.3-77.7c0.5-2.8,2.4-4.5,5.1-4.5c2.4,0,4.2,1.6,4.2,4.5H-162.3z M-142.2-72.2c0,7.2,5.9,8.1,8.9,8.1c1,0,1.6-0.1,1.6-0.1v-4.7
	c0,0-0.4,0.1-1,0.1c-1.5,0-4.2-0.5-4.2-4v-8.3h4.9v-4.2h-4.9v-6.2h-5.2v6.2h-2.9v4.2h2.8V-72.2z M-127.3-64.3h5.3v-8.5
	c0-1.3,0.1-2.4,0.5-3.5c1-3.2,3.6-4.5,5.8-4.5c0.7,0,1.3,0.1,1.3,0.1v-5.3c0,0-0.5-0.1-1-0.1c-3.3,0-5.8,2.4-6.8,5.5h-0.1
	c0,0,0.1-0.7,0.1-1.5v-3.7h-5.1V-64.3z M-112.4-75c0,6.6,5.3,11.2,11.8,11.2c6.5,0,11.8-4.6,11.8-11.2c0-6.6-5.3-11.2-11.8-11.2
	C-107.1-86.2-112.4-81.6-112.4-75z M-107-75c0-3.9,2.9-6.7,6.4-6.7c3.4,0,6.3,2.7,6.3,6.7c0,4-2.9,6.7-6.3,6.7
	C-104.1-68.3-107-71-107-75z M-84.5-64.3h5.3v-9.8c0-1,0.1-2,0.4-2.9c0.8-2.6,2.9-4.4,5.8-4.4c2.7,0,3.4,1.8,3.4,4.4v12.7h5.3v-13.8
	c0-5.7-2.7-8.1-7.4-8.1c-4.3,0-6.7,2.6-7.6,4.5h-0.1c0,0,0.1-0.7,0.1-1.5v-2.5h-5.1V-64.3z M-58.8-89.4h5.3v-4.7h-5.3V-89.4z
	 M-58.8-64.3h5.3v-21.4h-5.3V-64.3z M-49.1-75c0,6.2,4.5,11.2,11.6,11.2c5.8,0,8.8-3.5,8.8-3.5l-2.1-3.8c0,0-2.7,2.7-6.3,2.7
	c-4.1,0-6.7-3.1-6.7-6.7c0-3.7,2.6-6.6,6.5-6.6c3.4,0,5.6,2.3,5.6,2.3l2.4-3.7c0,0-2.6-3.2-8.2-3.2C-44.6-86.2-49.1-81.1-49.1-75z"
	/>
<path class="st2" d="M-235.3-103.5l15.2,47.4c0.8,2.6-1.1,5.2-3.8,5.2h-11.2c-1.7,0-3.3-1.1-3.8-2.8l-15-47.4
	c-0.8-2.6,1.1-5.2,3.8-5.2h11C-237.4-106.3-235.8-105.2-235.3-103.5z"/>
<g>
	<path class="st1" d="M-249.9-68.5l-10.7-34.4c-0.6-2.1-2.5-3.4-4.7-3.4c-2.6,0-4.8,2.1-4.9,4.7l-1.3,25.7c0,0.9,0.1,1.8,0.3,2.7
		l5.8,19.5c0.5,1.7,2.1,2.9,3.8,2.9h5.4c1.7,0,3.3-1.1,3.8-2.8l2.4-7.5C-249.1-63.6-249.1-66.2-249.9-68.5z"/>
	
		<linearGradient id="SVGID_1_" gradientUnits="userSpaceOnUse" x1="-267.9336" y1="-414.7862" x2="-256.4336" y2="-417.7862" gradientTransform="matrix(1 0 0 -1 0 -494.6142)">
		<stop  offset="0" style="stop-color:#000000;stop-opacity:0.25"/>
		<stop  offset="0.9115" style="stop-color:#FFFFFF;stop-opacity:0"/>
	</linearGradient>
	<path class="st3" d="M-249.9-68.5l-10.7-34.4c-0.6-2.1-2.5-3.4-4.7-3.4c-2.6,0-4.8,2.1-4.9,4.7l-1.3,25.7c0,0.9,0.1,1.8,0.3,2.7
		l5.8,19.5c0.5,1.7,2.1,2.9,3.8,2.9h5.4c1.7,0,3.3-1.1,3.8-2.8l2.4-7.5C-249.1-63.6-249.1-66.2-249.9-68.5z"/>
</g>
<path class="st2" d="M-276.1-106.3h11c2.7,0,4.6,2.6,3.8,5.2l-14.9,47.8c-0.5,1.7-2.1,2.8-3.8,2.8h-11c-2.7,0-4.6-2.6-3.8-5.2
	l14.9-47.8C-279.4-105.2-277.9-106.3-276.1-106.3z"/>
<g>
	<path class="st0" d="M490.3,316H-34.2c-18.1,0-32.8-14.7-32.8-32.8V-13.2c0-18.1,14.7-32.8,32.8-32.8h524.5
		c18.1,0,32.8,14.7,32.8,32.8v296.5C523.1,301.3,508.4,316,490.3,316z"/>
	<path class="st1" d="M94.8,58c-4.6-7.6-17.1-14.9-31.6-14.9c-18.7,0-27.6,7.8-27.6,17.7c0,11.6,13.7,14.9,29.7,16.8
		C93.1,81,119,88.3,119,120.1c0,29.7-26.3,42.5-56,42.5c-27.2,0-48.2-8.4-58.1-32.8l21-10.9c5.9,14.7,21.3,21.1,37.5,21.1
		c15.8,0,30.7-5.5,30.7-20c0-12.6-13.1-17.7-30.9-19.6C35.9,97.2,10.8,90,10.8,60.1c0-27.4,27.1-38.7,51.6-38.9
		c20.8,0,42.3,5.9,52.4,26.5L94.8,58z"/>
	<path class="st1" d="M237.9,159.1H138c0-44.4,0-89,0-133.4h99.8v24.4H163v30.7h72.2v23.4H163v30.1h74.9V159.1z"/>
	<g>
		<defs>
			<path id="SVGID_2_" d="M452.1,197.8c-14.8-14.8-29.6-29.5-44.3-44.3c-3.4-3.4-8-3.6-11-0.9c-0.6,0.5-0.8,0-1.1-0.3
				c-2.6-2.6-5.2-5.2-7.7-7.7c-2.6-2.6-5.2-5.3-7.9-7.9c-0.5-0.5-0.7-0.9-0.1-1.5c7.7-10,12.5-21.2,14.1-33.8
				c2.2-17-1-32.5-9.4-46.3l-14.2,24.6c0.9,3.7,1.4,7.6,1.5,11.6c0.1,26.7-21.3,48.1-48,48.1c-26.7,0-47.8-21.5-47.9-47.9
				c0.1-26.5,21.3-47.9,47.8-48c12.3,0,23.6,4.5,32.1,12.1l11.6-20.1c-9.1-7.3-19.7-12-31.7-14.1c-2.1-0.4-4.3,0-6.4-1
				c-4,0-8,0-11.9,0c-0.2,0-0.4,0.2-0.6,0.2c-5,0.4-9.8,1.4-14.6,2.9c-13.7,4.3-25.1,12.1-34.2,23.2c-7.2,8.8-12.1,18.9-14.5,30.1
				c-0.6,2.9-0.5,5.9-1.5,8.9c0,4,0,8,0,11.9c1,2.9,0.8,5.8,1.5,8.6c3.3,15.4,11,28.4,22.8,38.8c9.7,8.6,21.1,14.2,33.9,16.5
				c18.1,3.3,35,0.1,50.8-9.4c2.4-1.5,4.7-3.1,6.9-4.9c0.6-0.5,1-0.5,1.6,0.1c5.2,5.2,10.4,10.4,15.6,15.5c0.4,0.4,0.6,0.7,0.1,1.3
				c-2.5,3.3-2.3,7.3,0.7,10.3c7.2,7.3,14.5,14.5,21.8,21.7c9.4,9.4,18.7,18,28.1,28c0.8,0,1.6,0,2.4,0c2-2,3.9-4,5.9-6
				c4.1-4.1,8.2-8.2,12.2-12.2c0-1.4,0-2.8,0-4.2C455.2,200.5,453.5,199.1,452.1,197.8z"/>
		</defs>
		<clipPath id="SVGID_3_">
			<use xlink:href="#SVGID_2_"  style="overflow:visible;"/>
		</clipPath>
		<path class="st4" d="M380.8,167.2l18.3-21.2c0,0,52.6,26.4,61.6,52.2c9,25.8,1.2,54.6-24.3,41
			C410.8,225.5,380.8,167.2,380.8,167.2z"/>
	</g>
	<path class="st5" d="M447.1,199.3c-14.8-14.8-29.6-29.5-44.3-44.4c-3.4-3.4-8-3.6-11-0.9c-0.6,0.5-0.8,0-1.1-0.3
		c-2.6-2.6-5.2-5.2-7.7-7.7c-2.6-2.6-5.2-5.3-7.9-7.9c-0.5-0.5-0.7-0.9-0.1-1.5c7.7-10,12.5-21.2,14.1-33.7c2.2-17-1-32.5-9.4-46.3
		l-14.2,24.6c0.9,3.7,1.4,7.6,1.4,11.6c0.1,26.7-21.4,48.1-48.1,48.1c-26.7-0.1-47.7-21.5-47.8-47.9c0.1-26.5,21.4-47.9,47.9-47.9
		c12.3,0,23.6,4.6,32.1,12.2L362.5,37c-9.1-7.3-19.7-12-31.7-14.1c-2.1-0.4-4.3-0.6-6.4-0.9c-4,0-8,0-11.9,0c-0.2,0-0.4,0.1-0.6,0.1
		c-5,0.4-9.8,1.4-14.6,2.9c-13.7,4.3-25.1,12-34.2,23.1c-7.2,8.8-12,18.9-14.4,30c-0.6,2.9-1,5.9-1.4,8.9c0,4,0,8,0,11.9
		c0.4,2.9,0.7,5.8,1.3,8.6c3.3,15.4,10.9,28.4,22.7,38.9c9.7,8.6,21,14.2,33.8,16.5c18.1,3.3,35,0.1,50.8-9.4
		c2.4-1.5,4.7-3.1,6.9-4.9c0.6-0.5,1-0.5,1.6,0.1c5.2,5.2,10.4,10.4,15.6,15.6c0.4,0.4,0.6,0.7,0.1,1.3c-2.5,3.3-2.3,7.3,0.7,10.3
		c7.2,7.3,14.5,14.5,21.7,21.8c9.4,9.4,18.7,18.7,28.1,28.1c0.8,0,1.6,0,2.4,0c2-2,4-4.1,6-6.1c4.1-4.1,8.2-8.2,12.3-12.3
		c0-1.4,0-2.8,0-4.2C449.9,202.1,448.5,200.7,447.1,199.3z"/>
	<polygon class="st6" points="398.5,3.8 369.7,17.4 377.3,22.6 339.8,87.4 313.6,74.3 307.5,71.2 304.8,76.9 283.3,121.4 
		287.1,125.4 312.8,88.9 339.4,102.2 345.1,105.1 348.2,99.6 388.3,30.3 395.9,35.5 	"/>
	<path class="st1" d="M31.6,198.8c1.2,1.5,1.8,3.2,1.8,5.2c0,1.8-0.4,3.3-1.3,4.6c-0.9,1.3-2.1,2.4-3.7,3.1
		c-1.6,0.8-3.6,1.1-5.8,1.1H8.5V180H22c2.2,0,4.1,0.4,5.8,1.1c1.6,0.7,2.8,1.7,3.7,3c0.8,1.3,1.2,2.7,1.2,4.4c0,1.9-0.5,3.5-1.5,4.8
		c-1,1.3-2.4,2.2-4.1,2.7C28.9,196.4,30.4,197.3,31.6,198.8z M15,193.6h6c1.6,0,2.8-0.4,3.6-1.1c0.8-0.7,1.3-1.7,1.3-3
		c0-1.3-0.4-2.3-1.3-3.1c-0.8-0.7-2.1-1.1-3.6-1.1h-6V193.6z M25.4,206.3c0.9-0.8,1.3-1.8,1.3-3.2c0-1.4-0.5-2.5-1.4-3.3
		c-0.9-0.8-2.2-1.2-3.8-1.2H15v8.8h6.6C23.3,207.5,24.5,207.1,25.4,206.3z"/>
	<path class="st1" d="M48,211c-2.6-1.4-4.6-3.4-6.1-6s-2.3-5.4-2.3-8.7c0-3.2,0.8-6.1,2.3-8.6s3.5-4.6,6.1-6
		c2.6-1.4,5.4-2.2,8.5-2.2c3.1,0,5.9,0.7,8.5,2.2c2.6,1.4,4.6,3.4,6.1,6s2.2,5.4,2.2,8.6c0,3.2-0.7,6.1-2.2,8.7s-3.5,4.6-6.1,6
		c-2.6,1.4-5.4,2.2-8.5,2.2C53.4,213.2,50.6,212.4,48,211z M61.7,205.9c1.5-0.9,2.7-2.2,3.5-3.8c0.8-1.7,1.3-3.6,1.3-5.8
		c0-2.2-0.4-4.1-1.3-5.8c-0.8-1.6-2-2.9-3.5-3.8c-1.5-0.9-3.2-1.3-5.2-1.3c-2,0-3.7,0.4-5.2,1.3c-1.5,0.9-2.7,2.1-3.5,3.8
		c-0.8,1.6-1.3,3.6-1.3,5.8c0,2.2,0.4,4.1,1.3,5.8c0.8,1.7,2,2.9,3.5,3.8c1.5,0.9,3.3,1.3,5.2,1.3C58.4,207.3,60.2,206.8,61.7,205.9
		z"/>
	<path class="st1" d="M87.4,211c-2.6-1.4-4.6-3.4-6.1-6s-2.3-5.4-2.3-8.7c0-3.2,0.8-6.1,2.3-8.6s3.5-4.6,6.1-6
		c2.6-1.4,5.4-2.2,8.5-2.2c3.1,0,5.9,0.7,8.5,2.2c2.6,1.4,4.6,3.4,6.1,6s2.2,5.4,2.2,8.6c0,3.2-0.7,6.1-2.2,8.7s-3.5,4.6-6.1,6
		c-2.6,1.4-5.4,2.2-8.5,2.2C92.8,213.2,90,212.4,87.4,211z M101.1,205.9c1.5-0.9,2.7-2.2,3.5-3.8c0.8-1.7,1.3-3.6,1.3-5.8
		c0-2.2-0.4-4.1-1.3-5.8c-0.8-1.6-2-2.9-3.5-3.8c-1.5-0.9-3.2-1.3-5.2-1.3c-2,0-3.7,0.4-5.2,1.3c-1.5,0.9-2.7,2.1-3.5,3.8
		c-0.8,1.6-1.3,3.6-1.3,5.8c0,2.2,0.4,4.1,1.3,5.8c0.8,1.7,2,2.9,3.5,3.8c1.5,0.9,3.3,1.3,5.2,1.3
		C97.9,207.3,99.6,206.8,101.1,205.9z"/>
	<path class="st1" d="M138.6,212.8l-11.9-14.6v14.6h-6.6V180h6.6v14.7l11.9-14.7h7.9L133,196.3l13.9,16.5H138.6z"/>
	<path class="st1" d="M160.4,185.3v8.2h11v5.2h-11v8.7h12.5v5.4h-19V180h19v5.4H160.4z"/>
	<path class="st1" d="M198.2,212.8L191,200h-3.1v12.8h-6.6V180h12.3c2.5,0,4.7,0.4,6.5,1.3c1.8,0.9,3.1,2.1,4,3.6
		c0.9,1.5,1.3,3.2,1.3,5.1c0,2.2-0.6,4.1-1.9,5.9c-1.3,1.7-3.1,2.9-5.6,3.6l7.8,13.3H198.2z M187.9,195.1h5.5c1.8,0,3.1-0.4,4-1.3
		c0.9-0.9,1.3-2.1,1.3-3.6c0-1.5-0.4-2.7-1.3-3.5c-0.9-0.8-2.2-1.2-4-1.2h-5.5V195.1z"/>
	<path class="st1" d="M219.1,212c-1.8-0.8-3.3-1.9-4.3-3.4c-1.1-1.5-1.6-3.2-1.6-5.2h7c0.1,1.3,0.6,2.4,1.4,3.2
		c0.9,0.8,2,1.2,3.5,1.2c1.5,0,2.7-0.4,3.6-1.1c0.9-0.7,1.3-1.7,1.3-2.9c0-1-0.3-1.8-0.9-2.4c-0.6-0.6-1.3-1.1-2.2-1.5
		c-0.9-0.4-2.1-0.8-3.7-1.2c-2.1-0.6-3.9-1.2-5.2-1.9c-1.3-0.6-2.5-1.5-3.4-2.8c-1-1.2-1.4-2.9-1.4-5c0-1.9,0.5-3.6,1.5-5.1
		c1-1.4,2.3-2.5,4.1-3.3c1.8-0.8,3.8-1.2,6-1.2c3.4,0,6.1,0.8,8.2,2.5c2.1,1.6,3.3,3.9,3.5,6.9h-7.2c-0.1-1.1-0.5-2.1-1.4-2.8
		c-0.9-0.7-2.1-1.1-3.5-1.1c-1.3,0-2.3,0.3-3.1,1c-0.8,0.7-1.2,1.6-1.2,2.9c0,0.9,0.3,1.6,0.9,2.2c0.6,0.6,1.3,1,2.2,1.4
		c0.9,0.4,2.1,0.8,3.6,1.2c2.1,0.6,3.9,1.3,5.2,1.9c1.3,0.6,2.5,1.6,3.5,2.8c1,1.3,1.5,2.9,1.5,4.9c0,1.8-0.5,3.4-1.4,4.9
		c-0.9,1.5-2.2,2.7-4,3.6c-1.8,0.9-3.8,1.3-6.3,1.3C223,213.2,221,212.8,219.1,212z"/>
	<path class="st1" d="M245.1,212.1c-0.8-0.7-1.2-1.7-1.2-2.8c0-1.1,0.4-2,1.2-2.7c0.8-0.7,1.7-1.1,2.9-1.1c1.2,0,2.1,0.4,2.9,1.1
		s1.1,1.7,1.1,2.7c0,1.1-0.4,2-1.1,2.8s-1.7,1.1-2.9,1.1C246.9,213.2,245.9,212.8,245.1,212.1z"/>
	<path class="st1" d="M260.5,187.7c1.5-2.6,3.4-4.5,6-6c2.5-1.4,5.3-2.1,8.5-2.1c3.7,0,6.9,0.9,9.6,2.8c2.8,1.9,4.7,4.5,5.8,7.8
		h-7.6c-0.8-1.6-1.8-2.7-3.2-3.5c-1.4-0.8-2.9-1.2-4.7-1.2c-1.9,0-3.6,0.4-5.1,1.3c-1.5,0.9-2.6,2.2-3.5,3.8s-1.2,3.5-1.2,5.7
		c0,2.2,0.4,4.1,1.2,5.7c0.8,1.6,2,2.9,3.5,3.8c1.5,0.9,3.2,1.3,5.1,1.3c1.8,0,3.4-0.4,4.7-1.2c1.4-0.8,2.4-2,3.2-3.5h7.6
		c-1.1,3.4-3,6-5.8,7.8c-2.7,1.9-6,2.8-9.7,2.8c-3.1,0-6-0.7-8.5-2.1c-2.5-1.4-4.5-3.4-6-5.9s-2.2-5.4-2.2-8.6
		C258.3,193.2,259,190.3,260.5,187.7z"/>
	<path class="st1" d="M305.3,211c-2.6-1.4-4.6-3.4-6.1-6s-2.3-5.4-2.3-8.7c0-3.2,0.8-6.1,2.3-8.6s3.5-4.6,6.1-6
		c2.6-1.4,5.4-2.2,8.5-2.2c3.1,0,5.9,0.7,8.5,2.2c2.6,1.4,4.6,3.4,6.1,6c1.5,2.6,2.2,5.4,2.2,8.6c0,3.2-0.7,6.1-2.2,8.7
		c-1.5,2.6-3.5,4.6-6.1,6c-2.6,1.4-5.4,2.2-8.5,2.2C310.7,213.2,307.9,212.4,305.3,211z M319,205.9c1.5-0.9,2.7-2.2,3.5-3.8
		c0.8-1.7,1.3-3.6,1.3-5.8c0-2.2-0.4-4.1-1.3-5.8c-0.8-1.6-2-2.9-3.5-3.8c-1.5-0.9-3.2-1.3-5.2-1.3c-2,0-3.7,0.4-5.2,1.3
		c-1.5,0.9-2.7,2.1-3.5,3.8c-0.8,1.6-1.3,3.6-1.3,5.8c0,2.2,0.4,4.1,1.3,5.8c0.8,1.7,2,2.9,3.5,3.8c1.5,0.9,3.3,1.3,5.2,1.3
		C315.7,207.3,317.5,206.8,319,205.9z"/>
	<path class="st1" d="M373.7,180v32.8h-6.6v-21.3l-8.8,21.3h-5l-8.8-21.3v21.3H338V180h7.5l10.4,24.4l10.4-24.4H373.7z"/>
</g>
</svg>
